# xmcd
#
# Track frame offsets:
#	150
#	15825
#	33375
#	52200
#	69525
#	87600
#	108075
#	126525
#	141075
#	160200
#	178800
#	194925
#	215250
#	232800
#	252750
#
# Disc length: 3522 seconds
#
# Revision: 1
# Processed by: cddbd v1.5.1PL0 Copyright (c) Steve Scherf et al.
# Submitted via: audiograbber 1.83.01
#
DISCID=d80dc00f
DTITLE=Andrew Strong - Gypsy's kiss
DYEAR=1900
DGENRE=Blues
TTITLE0=Andrew Strong - 24/7 Lover
TTITLE1=Andrew Strong - When you open your eyes
TTITLE2=Andrew Strong - Gypsy's kiss
TTITLE3=Andrew Strong - Never been rocked enough
TTITLE4=Andrew Strong - This is my life
TTITLE5=Andrew Strong - It's too late
TTITLE6=Andrew Strong - The last rocket man
TTITLE7=Andrew Strong - Everyone needs a friend
TTITLE8=Andrew Strong - Try me one more time
TTITLE9=Andrew Strong - You really got me
TTITLE10=Andrew Strong - A man needs a woman
TTITLE11=Andrew Strong - I shall be released
TTITLE12=Andrew Strong - The world has changed
TTITLE13=Andrew Strong - When you call
TTITLE14=Andrew Strong - Kings and Queens
EXTD=
EXTT0=
EXTT1=
EXTT2=
EXTT3=
EXTT4=
EXTT5=
EXTT6=
EXTT7=
EXTT8=
EXTT9=
EXTT10=
EXTT11=
EXTT12=
EXTT13=
EXTT14=
PLAYORDER=
